<svg id="Capa_1" xmlns="http://www.w3.org/2000/svg" xmlns:xlink="http://www.w3.org/1999/xlink" enable-background="new 0 0 512 512" height="512" viewBox="0 0 512 512" width="512" fill='#fff'><g><circle cx="493.061" cy="391.498" r="10"/><path d="m494.8 437.25c.79-5.2-2.61-10.15-7.74-11.271-2.93-.64-6.04.09-8.37 1.94-1.8 1.43-3.05 3.45-3.54 5.689l-.02.07c-.12.561-.25 1.13-.37 1.69-.36 1.6-.32 3.21.11 4.779l12.91 47.631-49.4-13.391c-2.26-.62-4.69-.41-6.82.58-15.88 7.43-40.32 11.36-70.67 11.36h-.68c-25.14 0-54.51-2.44-89.8-7.45-16.84-2.39-33.46-3.561-50.83-3.561h-.07c-15.85.011-29.76.921-43.2 1.801-11.32.739-22.01 1.439-32.21 1.439h-.3c-19.32-.02-34.24-2.359-49.91-7.85-1.93-.67-3.97-.75-5.93-.21l-63.74 17.28 12.91-47.631c.43-1.569.47-3.18.11-4.779-11.44-51.496-17.24-108.376-17.24-169.036 0-84.07 11.04-154.38 17.63-188.8.28-1.5.23-3.01-.17-4.49l-13.24-48.82 49.4 13.39c2.16.59 4.59.41 6.65-.5 14.5-6.39 45.36-17.11 89.03-17.11 33.57 0 68.71 6.29 104.42 18.67 8.13 2.82 17.07 4.18 27.34 4.18 11.98-.01 24.23-1.83 36.08-3.58.92-.14 29.29-4.689 42.4-4.19 9.76.371 26.66 2.03 38.57 6.21 1.92.67 3.97.75 5.93.21l63.74-17.28-13.24 48.82c-.4 1.48-.45 2.99-.17 4.49 6.59 34.42 17.63 104.72 17.63 188.8 0 27.23-1.19 54-3.52 79.58-.24 2.66.57 5.26 2.27 7.31 1.71 2.05 4.12 3.32 6.78 3.56 2.8.25 5.56-.68 7.63-2.56 1.86-1.69 3.01-3.99 3.24-6.49 2.39-26.18 3.6-53.57 3.6-81.4-.01-84.38-11-155.43-17.55-190.28l17.2-63.43c.94-3.45-.05-7.16-2.58-9.69-2.48-2.48-6.29-3.5-9.69-2.58l-77.64 21.06c-13.18-4.26-26.95-6.33-42.08-6.33h-.05c-15.63 0-43.38 4.11-43.38 4.11-12.65 1.88-24.6 3.67-35.06 3.67h-.11c-8.01-.01-14.81-1.01-20.78-3.09-37.83-13.12-75.16-19.77-110.96-19.77h-.02c-19.51 0-38.53 1.98-56.54 5.89-13.32 2.89-25.86 6.76-37.27 11.51l-62.87-17.05c-3.39-.92-7.21.1-9.69 2.58-2.53 2.53-3.52 6.24-2.58 9.69l17.2 63.43c-6.55 34.84-17.54 105.88-17.55 190.28 0 61.17 5.79 118.69 17.19 170.96l-16.84 62.09c-.94 3.45.05 7.16 2.58 9.689 2.48 2.48 6.3 3.5 9.69 2.58l77.62-21.05c16.5 5.431 33.46 7.96 53.38 7.96h.18c11.42-.02 22.64-.75 34.51-1.52 12.91-.851 26.27-1.721 40.93-1.721h.27c16.44 0 32.17 1.101 48.08 3.36 36.26 5.14 66.57 7.65 92.67 7.65 15.5-.03 28.89-.87 40.92-2.58 13.65-1.931 25.22-4.931 35.37-9.141l62.83 17.04c.85.23 1.73.351 2.61.351 2.64 0 5.22-1.07 7.08-2.931 2.53-2.529 3.52-6.239 2.58-9.689z"/><path d="m173.583 398.831c-4.236 3.544-4.796 9.851-1.252 14.086 1.978 2.364 4.816 3.583 7.675 3.583 2.263 0 4.54-.765 6.412-2.331 11.132-9.314 21.893-19.639 32.085-30.669h62.047c3.062 0 5.955-1.402 7.851-3.806 30.273-38.374 49.619-76.547 57.5-113.461 6.409-30.022 5.302-59.226-3.29-86.801-14.64-46.987-45.816-72.635-47.136-73.704-2.783-2.255-6.56-2.849-9.9-1.555-3.34 1.292-5.735 4.271-6.278 7.812-9.213 60.103-70.413 107.181-71.365 107.905-3.059 2.308-4.531 6.161-3.789 9.92l4.044 20.49-7.393-4.853c-2.323-1.525-5.177-2.014-7.875-1.351-2.699.664-5 2.42-6.351 4.849l-23.308 41.893c-1.66 2.982-1.683 6.604-.063 9.608l38.625 71.626c-8.932 9.517-18.387 18.515-28.239 26.759zm9.819-103.056 15.414-27.704 18.309 12.019c3.367 2.209 7.73 2.186 11.071-.064 3.341-2.249 5.007-6.282 4.227-10.232l-7.484-37.914c14.291-11.91 54.928-49.128 69.901-98.401 9.107 10.692 21.3 28.229 28.676 51.902 17.076 54.802.977 114.709-47.851 178.119h-39.944c12.177-15.205 23.175-31.341 32.488-47.84 20.5-36.32 31.791-72.246 31.791-101.16 0-5.523-4.477-10-10-10s-10 4.477-10 10c0 40.697-25.678 95.381-64.068 141.598z"/></g></svg>